<?xml version="1.0" encoding="UTF-8"?> <svg xmlns="http://www.w3.org/2000/svg" xmlns:xlink="http://www.w3.org/1999/xlink" id="Layer_1" data-name="Layer 1" viewBox="0 0 725.7 253.58"><defs><style>.cls-1{fill:#fff;}.cls-2{fill:url(#linear-gradient);}.cls-3{fill:url(#linear-gradient-2);}</style><linearGradient id="linear-gradient" x1="4.98" y1="86.68" x2="358.64" y2="86.68" gradientUnits="userSpaceOnUse"><stop offset="0" stop-color="#e4be21"></stop><stop offset="1" stop-color="#aa902a"></stop></linearGradient><linearGradient id="linear-gradient-2" x1="553.72" y1="142.65" x2="581.31" y2="142.65" gradientUnits="userSpaceOnUse"><stop offset="0" stop-color="#aa902a"></stop><stop offset="1" stop-color="#e4be21"></stop></linearGradient></defs><path class="cls-1" d="M17.54,198.86q-8.2,0-11.12-3t-2.9-11.29v-12l9.92-.09v14.88a3.1,3.1,0,0,0,3.1,3.11H42.66a3.11,3.11,0,0,0,3.11-3.11V138.6h10v46q0,8.26-2.94,11.26t-11.14,3Z"></path><path class="cls-1" d="M72.45,198.86l32.9-60.26h10.77l33.47,60.26H138.53L130.83,184H90.07l-7.7,14.82Zm21.83-22.52h32.45L110.48,145.5Z"></path><path class="cls-1" d="M161.16,198.86v-4.1l44.65-47.95H165V138.6h56.85V142l-45.45,48.46h45.45v8.38Z"></path><path class="cls-1" d="M281.81,138.6a71.73,71.73,0,0,1,13.83,1.11,27.18,27.18,0,0,1,9.32,3.56,26.52,26.52,0,0,1,9.15,10.49,32.25,32.25,0,0,1,3.33,14.6,34.32,34.32,0,0,1-3.28,15.2,25.93,25.93,0,0,1-9.2,10.63,27.06,27.06,0,0,1-9.24,3.53,70.63,70.63,0,0,1-13.91,1.14H248.63V138.6Zm-1.43,8.21H258.72v43.67h21.66q14.65,0,20.7-5.13t6-17q0-11.46-6.15-16.51T280.38,146.81Z"></path><path class="cls-1" d="M343,198.86V138.6h58v8.09H353.08v16.77h29.3v8h-29.3V190.6h48.4v8.26Z"></path><path class="cls-1" d="M425.43,198.86V138.6h6.33l45.1,40.31a41.23,41.23,0,0,1,3.28,3.31c1.16,1.29,2.34,2.71,3.56,4.27q-.45-2.91-.68-6.07c-.16-2.11-.23-5-.23-8.75V138.6H492v60.26h-5.64L440.08,157c-.23-.19-.57-.5-1-.91a26.13,26.13,0,0,1-5.08-5.88c.23,1.83.4,3.77.52,5.85s.17,4.51.17,7.32v35.52Z"></path><path class="cls-1" d="M49.15,71.88S209.21,13.61,323.68,16.17c157.09,3.51,202.26,39.65,202.26,39.65s-44-47.29-153.07-54.71C203.23-10.43,49.15,71.88,49.15,71.88Z"></path><path class="cls-2" d="M5,58.83s26,30.11,165.69,17.35c95.53-8.73,188,38.36,188,38.36s-78-34.77-188.91-24.85C15.91,103.46,5,58.83,5,58.83Z"></path><path class="cls-1" d="M242.37,52.8s82.55,33.3,157.35,37.52c77.79,4.39,124.59-9,235.63-6,73.69,2,90.35,30.24,90.35,30.24S707.63,75.89,599.22,74.39,449.41,82,388.93,77.9C299.55,71.88,242.37,52.8,242.37,52.8Z"></path><polygon class="cls-3" points="553.72 146.69 581.31 146.69 581.31 138.6 556.96 138.6 553.72 146.69"></polygon><polygon class="cls-1" points="533.36 190.6 533.36 171.44 562.67 171.44 562.67 163.46 533.36 163.46 533.36 146.69 544.7 146.69 547.93 138.6 523.27 138.6 523.27 198.86 581.77 198.86 581.77 190.6 533.36 190.6"></polygon><path class="cls-1" d="M0,234.42H2.66l4,10.58c.63,1.64,1.23,3.26,1.85,5h.06c.62-1.72,1.25-3.39,1.9-5.09l4-10.5H17L9.8,253.29H7.27Z"></path><path class="cls-1" d="M27,234.13a9.73,9.73,0,1,1-9.59,9.73A9.49,9.49,0,0,1,27,234.13Zm0,17.15a7.43,7.43,0,1,0-7.11-7.42A7.13,7.13,0,0,0,27,251.28Z"></path><path class="cls-1" d="M38,253.29l0,0L48.7,236.71l0-.05h-10v-2.24H53l0,.05L42.37,251l0,.05H52.85v2.24Z"></path><path class="cls-1" d="M56,234.42H58.5v18.87H56Z"></path><path class="cls-1" d="M62.72,234.42h5.19A12.66,12.66,0,0,1,74.58,236a8.9,8.9,0,0,1,4.22,7.82,9.15,9.15,0,0,1-3.75,7.61c-2,1.4-4.51,1.9-7.77,1.9H62.72Zm5,16.63a10.17,10.17,0,0,0,5.61-1.25,7.27,7.27,0,0,0,0-11.83,10,10,0,0,0-5.68-1.31H65.2v14.39Z"></path><path class="cls-1" d="M81.87,234.42h2.48v16.63h8.91v2.24H81.87Z"></path><path class="cls-1" d="M101.91,234.42h2.37l7.8,18.87h-2.66L107.31,248h-8.5l-2.14,5.26H94.14Zm-2.24,11.44h6.78L104.91,242c-.6-1.51-1.23-3.12-1.8-4.66h0c-.58,1.54-1.2,3.13-1.85,4.74Zm3.7-13.29H101.6l2-4.27h2.63Z"></path><path class="cls-1" d="M159.52,242.27c-.86-1.23-1.7-2.48-2.53-3.73l-.05,0c0,1.13.05,2.56.05,4.1v10.63h-2.4V234.42H157l6.7,9.59,6.7-9.59h2.37v18.87h-2.48V242.66c0-1.54,0-3,.05-4.1l-.05,0c-.83,1.25-1.67,2.5-2.53,3.73l-4.11,5.89Z"></path><path class="cls-1" d="M185.5,234.13a9.73,9.73,0,1,1-9.59,9.73A9.49,9.49,0,0,1,185.5,234.13Zm0,17.15a7.43,7.43,0,1,0-7.12-7.42A7.12,7.12,0,0,0,185.5,251.28Z"></path><path class="cls-1" d="M202.62,236.66h-6.34v-2.24h15.15v2.24h-6.34v16.63h-2.47Z"></path><path class="cls-1" d="M222.21,234.13a9.73,9.73,0,1,1-9.59,9.73A9.48,9.48,0,0,1,222.21,234.13Zm0,17.15a7.43,7.43,0,1,0-7.11-7.42A7.13,7.13,0,0,0,222.21,251.28Z"></path><path class="cls-1" d="M243.74,234.13a10.94,10.94,0,0,1,5.31,1.33v2.71a9.14,9.14,0,0,0-5.34-1.74,7.43,7.43,0,0,0,.21,14.85,8.53,8.53,0,0,0,5.42-1.9v2.74a10.66,10.66,0,0,1-5.55,1.46,9.73,9.73,0,1,1,0-19.45Z"></path><path class="cls-1" d="M257.91,244.77l-7.27-10.35h2.87l3.2,4.61c.81,1.18,1.64,2.38,2.45,3.6h0c.79-1.2,1.59-2.37,2.45-3.62l3.18-4.59h2.77l-7.22,10.32v8.55h-2.48Z"></path><path class="cls-1" d="M269.77,234.42h2.47V243l.05,0,8.24-8.58h3.07l-8.47,8.76,9.2,10.11H281.1l-8.81-9.75-.05,0v9.72h-2.47Z"></path><path class="cls-1" d="M286.1,234.42h2.48v16.63h8.91v2.24H286.1Z"></path><path class="cls-1" d="M300.36,234.42h10.89v2.24h-8.42v5.74h7.38v2.16h-7.38v6.49h8.66v2.24H300.36Z"></path><path class="cls-1" d="M357.18,234.42h4.92a11.32,11.32,0,0,1,5.58,1,5.09,5.09,0,0,1,2.74,4.67,5.34,5.34,0,0,1-2.56,4.69c-1.64,1-3.83,1.07-6.25,1.07h-2v7.45h-2.47Zm4.74,9.25c2.22,0,3.47-.08,4.51-.7a3.33,3.33,0,0,0-.23-5.71,9.73,9.73,0,0,0-4.31-.6h-2.24v7Z"></path><path class="cls-1" d="M373.39,234.42h2.47v16.63h8.91v2.24H373.39Z"></path><path class="cls-1" d="M393.42,234.42h2.38l7.79,18.87h-2.66L398.82,248h-8.5l-2.13,5.27h-2.53Zm-2.24,11.44H398L396.42,242c-.6-1.51-1.22-3.13-1.8-4.66h-.05c-.57,1.53-1.2,3.12-1.85,4.74Z"></path><path class="cls-1" d="M401.79,234.42h2.66l4,10.58c.62,1.64,1.22,3.26,1.85,5h.05c.63-1.72,1.25-3.39,1.9-5.09l4-10.5h2.53l-7.24,18.87h-2.53Z"></path><path class="cls-1" d="M421.07,234.42h2.48v18.87h-2.48Z"></path><path class="cls-1" d="M427.77,234.42H433a12.66,12.66,0,0,1,6.67,1.54,8.91,8.91,0,0,1,4.23,7.82,9.16,9.16,0,0,1-3.76,7.61c-2,1.4-4.51,1.9-7.76,1.9h-4.56Zm5,16.63a10.11,10.11,0,0,0,5.6-1.25,7.29,7.29,0,0,0,0-11.84,10.06,10.06,0,0,0-5.68-1.3h-2.43v14.39Z"></path><path class="cls-1" d="M446.92,234.42h2.47v16.63h8.92v2.24H446.92Z"></path><path class="cls-1" d="M467,234.42h2.37l7.79,18.87h-2.66L472.35,248h-8.49l-2.14,5.27h-2.53Zm-2.24,11.44h6.77L470,242c-.59-1.51-1.22-3.13-1.79-4.66h-.06c-.57,1.53-1.19,3.12-1.85,4.74Zm3.7-13.29h-1.78l2-4.27h2.63Z"></path><path class="cls-1" d="M519.53,249.38a9.83,9.83,0,0,0,5.7,1.93c2.24,0,3.83-1,3.83-3.08,0-2.42-2.21-2.84-4.69-3.54-2.66-.76-5.24-1.85-5.24-5.29s2.43-5.27,6.1-5.27a10.7,10.7,0,0,1,5.42,1.41v2.61a10.06,10.06,0,0,0-5.47-1.75c-2.11,0-3.6.91-3.6,2.84,0,2.35,2.19,2.74,4.49,3.39,2.73.78,5.44,1.88,5.44,5.47,0,3.44-2.52,5.48-6.3,5.48a11.62,11.62,0,0,1-5.68-1.49Z"></path><path class="cls-1" d="M539.41,236.66h-6.33v-2.24h15.14v2.24h-6.34v16.63h-2.47Z"></path><path class="cls-1" d="M550.85,234.42H556a10.64,10.64,0,0,1,5.27.94,4.8,4.8,0,0,1,2.6,4.4,5,5,0,0,1-2.42,4.43,5.81,5.81,0,0,1-2.16.79l6,8.31h-3l-5.76-8.08h-3.21v8.08h-2.47Zm5.68,8.76a6,6,0,0,0,3.7-.86,2.8,2.8,0,0,0,1.12-2.35,2.9,2.9,0,0,0-1.54-2.68,8.33,8.33,0,0,0-4-.63h-2.45v6.52Z"></path><path class="cls-1" d="M576.2,234.13a9.73,9.73,0,1,1-9.59,9.72A9.48,9.48,0,0,1,576.2,234.13Zm0,17.15a7.43,7.43,0,1,0-7.11-7.43A7.13,7.13,0,0,0,576.2,251.28Z"></path><path class="cls-1" d="M587.59,250.68a7.27,7.27,0,0,0,2.68.6c2,0,2.35-1.33,2.35-3.33V234.42h2.47v13.4c0,2.24-.34,3.38-1,4.19a4.65,4.65,0,0,1-3.78,1.57,7.55,7.55,0,0,1-2.73-.55Z"></path><path class="cls-1" d="M599.31,234.42h10.9v2.24h-8.42v5.74h7.37v2.16h-7.37v6.49h8.65v2.24H599.31Z"></path><path class="cls-1" d="M658.31,234.42h5.19a12.68,12.68,0,0,1,6.67,1.54,8.9,8.9,0,0,1,4.22,7.82,9.17,9.17,0,0,1-3.75,7.61c-2,1.4-4.51,1.9-7.77,1.9h-4.56Zm5,16.63a10.11,10.11,0,0,0,5.6-1.25,7.28,7.28,0,0,0,0-11.83,10,10,0,0,0-5.68-1.31h-2.42v14.39Z"></path><path class="cls-1" d="M677.46,234.42h2.48v18.87h-2.48Z"></path><path class="cls-1" d="M684.16,234.42h10.89v2.24h-8.42v5.74H694v2.16h-7.38v6.49h8.66v2.24H684.16Z"></path><path class="cls-1" d="M698.52,234.42H701v16.63h8.91v2.24H698.52Z"></path><path class="cls-1" d="M715.71,244.77l-7.27-10.35h2.87l3.21,4.61c.8,1.18,1.64,2.38,2.44,3.6H717c.78-1.2,1.59-2.37,2.45-3.62l3.18-4.59h2.76l-7.22,10.32v8.55h-2.48Z"></path><path class="cls-1" d="M128,249.91a1.5,1.5,0,0,1-1.06-2.56l10.26-10.26a1.5,1.5,0,0,1,2.12,2.12L129.1,249.47A1.49,1.49,0,0,1,128,249.91Z"></path><path class="cls-1" d="M339.05,249.91a1.51,1.51,0,0,1-1.06-.44l-10.26-10.26a1.51,1.51,0,0,1,0-2.12,1.49,1.49,0,0,1,2.12,0l10.26,10.26a1.49,1.49,0,0,1,0,2.12A1.51,1.51,0,0,1,339.05,249.91Z"></path><path class="cls-1" d="M493,249.91a1.51,1.51,0,0,1-1.06-.44,1.49,1.49,0,0,1,0-2.12l10.26-10.26a1.5,1.5,0,0,1,2.12,2.12l-10.26,10.26A1.49,1.49,0,0,1,493,249.91Z"></path><path class="cls-1" d="M639.46,249.91a1.51,1.51,0,0,1-1.06-.44l-10.26-10.26a1.51,1.51,0,0,1,0-2.12,1.49,1.49,0,0,1,2.12,0l10.26,10.26a1.49,1.49,0,0,1,0,2.12A1.51,1.51,0,0,1,639.46,249.91Z"></path><path class="cls-1" d="M610.17,190.16c1.19,0,1.92.15,2.18.44a2.9,2.9,0,0,1,.4,1.85v4.87a3,3,0,0,1-.36,1.81q-.35.39-2.22.39h-5.12a1.78,1.78,0,0,1-1.35-.39,3,3,0,0,1-.36-1.81v-4.87a3,3,0,0,1,.4-1.85c.26-.29,1-.44,2.18-.44Z"></path><path class="cls-1" d="M632.35,199.52V163.4h36.37v5.37H639.17v9.28H657v5.37H639.17v10.82h29.88v5.28Z"></path><path class="cls-1" d="M688.69,163.4v30.67h26.38V163.4H722V191c0,3.33-.62,5.59-1.85,6.76s-3.57,1.77-7,1.77H690.73c-3.44,0-5.78-.59-7-1.79s-1.85-3.43-1.85-6.74V163.4Z"></path></svg> 